<svg xmlns="http://www.w3.org/2000/svg" height="800" width="1200" viewBox="-9.581055 -3.335275 83.03581 20.01165"><path d="M9.3933 0v13.3411h3.9527V2.9648zM7.8277 1.1705v12.1706h.8219V.5464zM6.2622 13.3411h.8218V1.7556l-.8218.585zm-1.5656 0h.8219V2.926l-.8219.6241zm9.393-7.3726v7.3726h3.9535v-4.408zM3.131 7.1388v6.2023h.822V6.5536zm-1.5655 6.2023h.8219V7.724l-.8219.5852zm-1.5655 0h.8219v-4.447L0 9.5183z" fill="#eb0029"/><path d="M28.2182 7.4118c-1.173 0-1.9167-.6631-1.9167-1.9504V2.9648h.9775v2.4966c0 .702.3527 1.0922.9788 1.0922.5865 0 .9392-.3901.9392-1.0922V2.9648h.9788v2.4576c0 1.3653-.7833 1.9894-1.9576 1.9894zm4.853 0c-.6644 0-1.3301-.234-1.8387-.702l.5482-.6632c.391.312.8216.507 1.3302.507.391 0 .626-.156.626-.3901v-.039c0-.234-.1558-.3511-.8995-.5461-.8612-.234-1.449-.5071-1.449-1.3652 0-.8193.626-1.3263 1.527-1.3263.6657 0 1.2126.195 1.6432.546l-.5086.7412c-.3513-.2731-.7437-.4291-1.1346-.4291-.3527 0-.5482.156-.5482.39 0 .2731.1955.3902.9391.5852.901.234 1.4095.5462 1.4095 1.3264 0 .897-.6658 1.3652-1.6446 1.3652zm5.7143-.0389V5.5784h-1.8004V7.373h-.9775V2.965h.9775v1.7163h1.8004V2.9648h.9788v4.408zm16.8298 0l-2.0738-2.7696v2.7696h-.9392v-4.408h.8996l2.0751 2.8085V2.9648h.9392v4.408zm-18.9816 5.9682l-1.3698-1.8724-.5085.5461v1.3263h-.9788v-4.408h.9788v1.9504l1.8004-1.9504h1.173l-1.8004 1.8725 1.8796 2.5355zm2.2693 0v-4.408h3.2878v.8582h-2.3486v.8973h2.0752v.858h-2.0752v.9363h2.3883v.8582zm9.3931 0h.9393V8.9332h-.9393zm2.3882 0v-4.408h3.2878v.8582h-2.309v.8973h2.0342v.858h-2.0342v.9363h2.3473v.8582zm4.7752 0v-4.408h.9774v3.5498h2.1928v.8582zm6.0656 0h-1.7225v-4.408h1.7225c1.4094 0 2.3486.9753 2.3486 2.1845v.039c0 1.2483-.9392 2.1845-2.3486 2.1845zm1.3315-2.1845c0-.7802-.5482-1.3263-1.3315-1.3263h-.7437v2.6526h.7437c.7833 0 1.3315-.5461 1.3315-1.3263zm-39.4122-4.603c-.823 0-1.3698-.624-1.3698-1.3653v-.039c0-.7412.5085-1.3653 1.2905-1.3653.4306-.039.823.1561 1.0964.4681l.6261-.7412c-.4306-.39-1.0171-.6631-1.7225-.624-1.3698 0-2.3472 1.0532-2.309 2.3014.0397 1.2873 1.0185 2.2625 2.3883 2.2235.704 0 1.3301-.312 1.7211-.7802l-.6644-.6241c-.2351.3121-.6261.507-1.0567.546zm21.2509-3.5888h1.0567v4.408h-.9391V4.4863l-1.2523 1.8724h-.0383l-1.2535-1.8724V7.373h-.8996V2.965h1.0171l1.1743 1.8334zm3.9931 0l-1.8796 4.408h1.0184l.391-1.0142h1.8783l.3923 1.0143h1.0171l-1.8783-4.408zm-.1175 2.5356l.5865-1.4043.5878 1.4043zM29.901 8.933l-1.8783 4.4081h.9788l.4306-.9752h1.84l.4293.9752h.9788l-1.8783-4.408zm-.1558 2.5747l.5864-1.4433.5879 1.4433zM44.579 9.8303v.9362h2.0739v.8972H44.579v1.6774h-.9788v-4.408h3.3657v.8972zM26.966 8.933l-1.0172 3.0818-1.017-3.0817h-.9406l-1.017 3.0817-1.0172-3.0817h-1.0567l1.6036 4.408h.9788l.9788-3.0037 1.017 3.0037h.9393l1.6049-4.408zm35.7334-2.6525l.5086-.585-.5865-.6242-.4703.5071-.5482-.6631c.3527-.1951.5878-.5852.5878-.9752-.0396-.6241-.5085-1.0532-1.1346-1.0532-.313 0-.5878.117-.7833.312s-.313.468-.313.7802c.0395.351.235.6242.3909.8192-.5085.195-.8995.7412-.8612 1.2873.0396.741.6657 1.3652 1.449 1.3652.4306 0 .8996-.234 1.2126-.585l.3923.507h1.1347zm-1.0567-.039c-.2352.273-.469.3901-.704.3901-.3131 0-.5879-.234-.5879-.585-.0383-.1952.1176-.4682.5482-.6633zm-.5482-1.8334c-.1176-.117-.2734-.273-.313-.429 0-.156.0778-.3122.313-.3511.1955 0 .313.156.313.351 0 .195-.1955.351-.313.4291z" fill="#717271"/></svg>